<svg xmlns="http://www.w3.org/2000/svg" version="1.1" xmlns:xlink="http://www.w3.org/1999/xlink" xmlns:svgjs="http://svgjs.dev/svgjs" viewBox="0 0 22.48294109926736 17.797252559405823"><g transform="matrix(1,0,0,1,1.6646700125243061,12.370796624154245)"><rect width="22.48294109926736" height="22.48294109926736" x="-1.6646700125243061" y="-14.713640894085014" fill="#fffdfa"></rect><g><path d=" M 3.5610522524414083 0.023414999999999964 L 3.3302472524414086 1.194165 L 3.024179752441409 1.194165 L 3.1445997524414087 0.5770124999999999 L 2.7549072524414084 1.0787624999999998 L 2.6093997524414085 1.0787624999999998 L 2.3969922524414087 0.5770124999999999 L 2.2732272524414086 1.194165 L 1.9688322524414086 1.194165 L 2.2029822524414087 0.023414999999999964 L 2.4722547524414087 0.023414999999999964 L 2.746544752441409 0.7007774999999999 L 3.2783997524414086 0.023414999999999964 L 3.5610522524414083 0.023414999999999964 M 4.112608453125002 0.27930749999999993 L 4.074140953125003 0.4766625 L 4.594288453125003 0.4766625 L 4.545785953125002 0.7241925 L 4.0239659531250025 0.7241925 L 3.9821534531250027 0.9382725 L 4.595960953125003 0.9382725 L 4.542440953125002 1.194165 L 3.6041684531250024 1.194165 L 3.8383184531250025 0.023414999999999964 L 4.754848453125002 0.023414999999999964 L 4.703000953125002 0.27930749999999993 L 4.112608453125002 0.27930749999999993 M 5.888464053222659 0.67318125 Q 5.803166553222659 0.78942 5.649296553222659 0.8429399999999999 L 5.848324053222659 1.194165 L 5.502116553222659 1.194165 L 5.328176553222659 0.8830799999999999 L 5.160926553222659 0.8830799999999999 L 5.099044053222659 1.194165 L 4.767889053222659 1.194165 L 5.002039053222659 0.023414999999999964 L 5.502116553222659 0.023414999999999964 Q 5.726231553222659 0.023414999999999964 5.849996553222659 0.12209249999999994 Q 5.973761553222659 0.2207699999999999 5.973761553222659 0.39638249999999997 Q 5.973761553222659 0.5569424999999999 5.888464053222659 0.67318125 M 5.590759053222659 0.32028375 Q 5.542256553222659 0.28432499999999994 5.455286553222659 0.28432499999999994 L 5.281346553222659 0.28432499999999994 L 5.211101553222659 0.6271874999999999 L 5.408456553222659 0.6271874999999999 Q 5.518841553222659 0.6271874999999999 5.579051553222659 0.57534 Q 5.639261553222659 0.5234924999999999 5.639261553222659 0.42816 Q 5.639261553222659 0.3562424999999999 5.590759053222659 0.32028375 M 6.373138220214846 1.15318875 Q 6.239338220214846 1.0887974999999999 6.167420720214847 0.9717224999999999 Q 6.095503220214846 0.8546475 6.095503220214846 0.70245 Q 6.095503220214846 0.5017499999999999 6.188326970214846 0.34119 Q 6.281150720214846 0.18062999999999985 6.448400720214846 0.09031499999999992 Q 6.6156507202148465 0 6.8297307202148465 0 Q 6.9919632202148465 0 7.117400720214846 0.05770125000000004 Q 7.242838220214846 0.11540249999999985 7.3047207202148465 0.2207699999999999 L 7.065553220214847 0.411435 Q 6.9802557202148465 0.2742899999999999 6.807988220214846 0.2742899999999999 Q 6.695930720214847 0.2742899999999999 6.610633220214846 0.32697374999999995 Q 6.525335720214846 0.3796575 6.477669470214846 0.47248124999999996 Q 6.4300032202148465 0.565305 6.4300032202148465 0.6807074999999999 Q 6.4300032202148465 0.7994549999999999 6.506938220214846 0.8713724999999999 Q 6.583873220214846 0.94329 6.716000720214846 0.94329 Q 6.883250720214846 0.94329 7.001998220214847 0.8078174999999999 L 7.197680720214846 1.000155 Q 7.1023482202148465 1.1155575 6.975238220214846 1.16656875 Q 6.848128220214846 1.2175799999999999 6.684223220214847 1.2175799999999999 Q 6.506938220214846 1.2175799999999999 6.373138220214846 1.15318875 M 8.142228688476564 0.9667049999999999 L 7.643823688476565 0.9667049999999999 L 7.508351188476565 1.194165 L 7.158798688476565 1.194165 L 7.909751188476565 0.023414999999999964 L 8.235888688476566 0.023414999999999964 L 8.518541188476565 1.194165 L 8.189058688476566 1.194165 L 8.142228688476564 0.9667049999999999 M 8.092053688476565 0.7225199999999999 L 8.013446188476564 0.34286249999999996 L 7.789331188476565 0.7225199999999999 L 8.092053688476565 0.7225199999999999 M 8.88784715478516 0.023414999999999964 L 9.396287154785158 0.023414999999999964 Q 9.576917154785159 0.023414999999999964 9.709044654785158 0.08278874999999997 Q 9.84117215478516 0.14216249999999997 9.912253404785158 0.2533837499999999 Q 9.983334654785159 0.36460499999999996 9.983334654785159 0.51513 Q 9.983334654785159 0.7191749999999999 9.89051090478516 0.873045 Q 9.797687154785159 1.026915 9.63210965478516 1.1105399999999999 Q 9.466532154785158 1.194165 9.252452154785159 1.194165 L 8.653697154785158 1.194165 L 8.88784715478516 0.023414999999999964 M 9.262487154785159 0.9299099999999999 Q 9.382907154785158 0.9299099999999999 9.470713404785158 0.87889875 Q 9.558519654785158 0.8278874999999999 9.603677154785158 0.73840875 Q 9.648834654785158 0.6489299999999999 9.648834654785158 0.5351999999999999 Q 9.648834654785158 0.4164525 9.575244654785159 0.35206125 Q 9.501654654785158 0.28767 9.359492154785158 0.28767 L 9.165482154785158 0.28767 L 9.038372154785158 0.9299099999999999 L 9.262487154785159 0.9299099999999999 M 10.398597621826175 1.1523525 Q 10.267306371826175 1.087125 10.196225121826174 0.97005 Q 10.125143871826175 0.8529749999999999 10.125143871826175 0.70245 Q 10.125143871826175 0.5017499999999999 10.217967621826174 0.34119 Q 10.310791371826175 0.18062999999999985 10.477205121826174 0.09031499999999992 Q 10.643618871826174 0 10.856026371826175 0 Q 11.033311371826175 0 11.164602621826175 0.0652275 Q 11.295893871826175 0.130455 11.366975121826174 0.24752999999999992 Q 11.438056371826175 0.36460499999999996 11.438056371826175 0.51513 Q 11.438056371826175 0.71583 11.345232621826174 0.87639 Q 11.252408871826175 1.03695 11.085995121826175 1.127265 Q 10.919581371826174 1.2175799999999999 10.707173871826175 1.2175799999999999 Q 10.529888871826175 1.2175799999999999 10.398597621826175 1.1523525 M 10.929616371826175 0.8880975 Q 11.013241371826174 0.832905 11.058398871826174 0.7400812499999999 Q 11.103556371826174 0.6472574999999999 11.103556371826174 0.5351999999999999 Q 11.103556371826174 0.4164525 11.030802621826174 0.3453712499999999 Q 10.958048871826175 0.2742899999999999 10.827593871826174 0.2742899999999999 Q 10.717208871826175 0.2742899999999999 10.633583871826175 0.3294824999999999 Q 10.549958871826174 0.384675 10.504801371826174 0.47749874999999997 Q 10.459643871826174 0.5703225 10.459643871826174 0.68238 Q 10.459643871826174 0.8011275 10.532397621826174 0.87220875 Q 10.605151371826175 0.94329 10.735606371826174 0.94329 Q 10.845991371826175 0.94329 10.929616371826175 0.8880975 M 12.290402387695316 0.023414999999999964 L 12.621557387695315 0.023414999999999964 L 12.440927387695314 0.9315825 L 12.999542387695316 0.9315825 L 12.946022387695315 1.194165 L 12.056252387695315 1.194165 L 12.290402387695316 0.023414999999999964 M 13.421512504394535 1.1523525 Q 13.290221254394535 1.087125 13.219140004394534 0.97005 Q 13.148058754394535 0.8529749999999999 13.148058754394535 0.70245 Q 13.148058754394535 0.5017499999999999 13.240882504394534 0.34119 Q 13.333706254394535 0.18062999999999985 13.500120004394535 0.09031499999999992 Q 13.666533754394534 0 13.878941254394535 0 Q 14.056226254394534 0 14.187517504394535 0.0652275 Q 14.318808754394535 0.130455 14.389890004394534 0.24752999999999992 Q 14.460971254394535 0.36460499999999996 14.460971254394535 0.51513 Q 14.460971254394535 0.71583 14.368147504394534 0.87639 Q 14.275323754394535 1.03695 14.108910004394534 1.127265 Q 13.942496254394534 1.2175799999999999 13.730088754394535 1.2175799999999999 Q 13.552803754394535 1.2175799999999999 13.421512504394535 1.1523525 M 13.952531254394534 0.8880975 Q 14.036156254394534 0.832905 14.081313754394534 0.7400812499999999 Q 14.126471254394534 0.6472574999999999 14.126471254394534 0.5351999999999999 Q 14.126471254394534 0.4164525 14.053717504394534 0.3453712499999999 Q 13.980963754394534 0.2742899999999999 13.850508754394534 0.2742899999999999 Q 13.740123754394535 0.2742899999999999 13.656498754394534 0.3294824999999999 Q 13.572873754394534 0.384675 13.527716254394534 0.47749874999999997 Q 13.482558754394535 0.5703225 13.482558754394535 0.68238 Q 13.482558754394535 0.8011275 13.555312504394534 0.87220875 Q 13.628066254394534 0.94329 13.758521254394534 0.94329 Q 13.868906254394535 0.94329 13.952531254394534 0.8880975 M 15.378836804443361 0.9667049999999999 L 14.880431804443361 0.9667049999999999 L 14.744959304443361 1.194165 L 14.395406804443361 1.194165 L 15.146359304443362 0.023414999999999964 L 15.472496804443361 0.023414999999999964 L 15.75514930444336 1.194165 L 15.425666804443361 1.194165 L 15.378836804443361 0.9667049999999999 M 15.328661804443362 0.7225199999999999 L 15.250054304443362 0.34286249999999996 L 15.025939304443362 0.7225199999999999 L 15.328661804443362 0.7225199999999999 M 17.236667770751954 0.023414999999999964 L 17.002517770751954 1.194165 L 16.729900270751955 1.194165 L 16.343552770751955 0.551925 L 16.214770270751956 1.194165 L 15.890305270751954 1.194165 L 16.124455270751955 0.023414999999999964 L 16.397072770751954 0.023414999999999964 L 16.785092770751955 0.6639824999999999 L 16.912202770751954 0.023414999999999964 L 17.236667770751954 0.023414999999999964 M 5.4596072871093755 1.4283149999999996 L 5.225457287109375 2.5990649999999995 L 4.952839787109376 2.5990649999999995 L 4.566492287109376 1.9568249999999996 L 4.437709787109376 2.5990649999999995 L 4.113244787109376 2.5990649999999995 L 4.347394787109375 1.4283149999999996 L 4.620012287109375 1.4283149999999996 L 5.008032287109375 2.0688824999999995 L 5.1351422871093755 1.4283149999999996 L 5.4596072871093755 1.4283149999999996 M 6.343973838134766 2.3716049999999997 L 5.845568838134766 2.3716049999999997 L 5.7100963381347665 2.5990649999999995 L 5.360543838134766 2.5990649999999995 L 6.111496338134766 1.4283149999999996 L 6.437633838134766 1.4283149999999996 L 6.720286338134766 2.5990649999999995 L 6.390803838134766 2.5990649999999995 L 6.343973838134766 2.3716049999999997 M 6.293798838134766 2.1274199999999994 L 6.215191338134766 1.7477624999999994 L 5.991076338134766 2.1274199999999994 L 6.293798838134766 2.1274199999999994 M 8.210164854492188 1.4283149999999996 L 7.475937354492188 2.5990649999999995 L 7.149799854492188 2.5990649999999995 L 6.883872354492188 1.4283149999999996 L 7.223389854492187 1.4283149999999996 L 7.390639854492187 2.1893024999999997 L 7.868974854492188 1.4283149999999996 L 8.210164854492188 1.4283149999999996 M 8.320176155273437 1.4283149999999996 L 8.651331155273438 1.4283149999999996 L 8.417181155273438 2.5990649999999995 L 8.086026155273437 2.5990649999999995 L 8.320176155273437 1.4283149999999996 M 9.599286188964843 1.9886024999999994 L 9.891973688964844 1.9886024999999994 L 9.793296188964844 2.4819899999999997 Q 9.702981188964845 2.5505624999999994 9.583397438964845 2.5865212499999997 Q 9.463813688964844 2.6224799999999995 9.331686188964843 2.6224799999999995 Q 9.154401188964844 2.6224799999999995 9.021437438964844 2.5580887499999996 Q 8.888473688964844 2.4936974999999997 8.815719938964843 2.3766224999999994 Q 8.742966188964845 2.2595474999999996 8.742966188964845 2.1073499999999994 Q 8.742966188964845 1.9049774999999995 8.836626188964845 1.7452537499999994 Q 8.930286188964844 1.5855299999999994 9.099208688964843 1.4952149999999995 Q 9.268131188964844 1.4048999999999996 9.487228688964844 1.4048999999999996 Q 9.835108688964844 1.4048999999999996 9.997341188964844 1.6206524999999994 L 9.759846188964843 1.8079724999999995 Q 9.702981188964845 1.7377274999999996 9.634408688964845 1.7084587499999997 Q 9.565836188964845 1.6791899999999995 9.472176188964845 1.6791899999999995 Q 9.353428688964843 1.6791899999999995 9.263949938964844 1.7318737499999997 Q 9.174471188964844 1.7845574999999996 9.125968688964845 1.8765449999999997 Q 9.077466188964845 1.9685324999999996 9.077466188964845 2.0856074999999996 Q 9.077466188964845 2.2060274999999994 9.156073688964844 2.2771087499999996 Q 9.234681188964844 2.3481899999999993 9.376843688964843 2.3481899999999993 Q 9.462141188964845 2.3481899999999993 9.532386188964844 2.3197574999999997 L 9.599286188964843 1.9886024999999994 M 10.86339435498047 2.3716049999999997 L 10.36498935498047 2.3716049999999997 L 10.229516854980469 2.5990649999999995 L 9.87996435498047 2.5990649999999995 L 10.63091685498047 1.4283149999999996 L 10.95705435498047 1.4283149999999996 L 11.239706854980469 2.5990649999999995 L 10.91022435498047 2.5990649999999995 L 10.86339435498047 2.3716049999999997 M 10.81321935498047 2.1274199999999994 L 10.73461185498047 1.7477624999999994 L 10.51049685498047 2.1274199999999994 L 10.81321935498047 2.1274199999999994 M 11.746202737060546 1.6908974999999995 L 11.386615237060546 1.6908974999999995 L 11.440135237060547 1.4283149999999996 L 12.488792737060546 1.4283149999999996 L 12.435272737060547 1.6908974999999995 L 12.077357737060547 1.6908974999999995 L 11.895055237060546 2.5990649999999995 L 11.563900237060547 2.5990649999999995 L 11.746202737060546 1.6908974999999995 M 12.725116987060547 2.5572524999999997 Q 12.593825737060547 2.4920249999999995 12.522744487060546 2.3749499999999997 Q 12.451663237060547 2.2578749999999994 12.451663237060547 2.1073499999999994 Q 12.451663237060547 1.9066499999999995 12.544486987060546 1.7460899999999997 Q 12.637310737060547 1.5855299999999994 12.803724487060546 1.4952149999999995 Q 12.970138237060546 1.4048999999999996 13.182545737060547 1.4048999999999996 Q 13.359830737060546 1.4048999999999996 13.491121987060547 1.4701274999999996 Q 13.622413237060547 1.5353549999999996 13.693494487060546 1.6524299999999994 Q 13.764575737060547 1.7695049999999997 13.764575737060547 1.9200299999999997 Q 13.764575737060547 2.1207299999999996 13.671751987060546 2.2812899999999994 Q 13.578928237060547 2.4418499999999996 13.412514487060546 2.5321649999999996 Q 13.246100737060546 2.6224799999999995 13.033693237060547 2.6224799999999995 Q 12.856408237060547 2.6224799999999995 12.725116987060547 2.5572524999999997 M 13.256135737060546 2.2929974999999994 Q 13.339760737060546 2.2378049999999994 13.384918237060546 2.1449812499999994 Q 13.430075737060546 2.0521574999999994 13.430075737060546 1.9400999999999995 Q 13.430075737060546 1.8213524999999997 13.357321987060546 1.7502712499999995 Q 13.284568237060547 1.6791899999999995 13.154113237060546 1.6791899999999995 Q 13.043728237060547 1.6791899999999995 12.960103237060547 1.7343824999999995 Q 12.876478237060546 1.7895749999999997 12.831320737060546 1.8823987499999997 Q 12.786163237060546 1.9752224999999997 12.786163237060546 2.08728 Q 12.786163237060546 2.2060274999999994 12.858916987060546 2.2771087499999996 Q 12.931670737060546 2.3481899999999993 13.062125737060546 2.3481899999999993 Q 13.172510737060547 2.3481899999999993 13.256135737060546 2.2929974999999994 M 14.976817620117187 2.0780812499999994 Q 14.891520120117187 2.1943199999999994 14.737650120117186 2.2478399999999996 L 14.936677620117187 2.5990649999999995 L 14.590470120117187 2.5990649999999995 L 14.416530120117187 2.2879799999999997 L 14.249280120117186 2.2879799999999997 L 14.187397620117187 2.5990649999999995 L 13.856242620117186 2.5990649999999995 L 14.090392620117186 1.4283149999999996 L 14.590470120117187 1.4283149999999996 Q 14.814585120117187 1.4283149999999996 14.938350120117187 1.5269924999999995 Q 15.062115120117186 1.6256699999999995 15.062115120117186 1.8012824999999997 Q 15.062115120117186 1.9618424999999995 14.976817620117187 2.0780812499999994 M 14.679112620117186 1.7251837499999996 Q 14.630610120117186 1.6892249999999995 14.543640120117187 1.6892249999999995 L 14.369700120117187 1.6892249999999995 L 14.299455120117187 2.0320874999999994 L 14.496810120117187 2.0320874999999994 Q 14.607195120117186 2.0320874999999994 14.667405120117186 1.9802399999999996 Q 14.727615120117186 1.9283924999999995 14.727615120117186 1.8330599999999997 Q 14.727615120117186 1.7611424999999996 14.679112620117186 1.7251837499999996" fill="url(#gradient-fca7a8ad-b49a-4afe-9c15-e3018e6d7f69)" fill-rule="nonzero"></path></g><g><path d=" M 0.0634090909090909 3.2224677409090905 L 0.22159090909090906 3.4829222863636358 L 0.3811363636363636 3.2224677409090905 L 0.4329545454545454 3.2224677409090905 L 0.24545454545454543 3.5265586499999992 L 0.24545454545454543 3.7065586499999994 L 0.19772727272727272 3.7065586499999994 L 0.19772727272727272 3.5251950136363632 L 0.010909090909090908 3.2224677409090905 L 0.0634090909090909 3.2224677409090905 M 0.6743208451704545 3.7099677409090903 Q 0.6231844815340909 3.7099677409090903 0.5815935724431818 3.689513195454545 Q 0.5400026633522728 3.6690586499999993 0.5100026633522727 3.633945013636363 Q 0.4800026633522727 3.5988313772727265 0.46363902698863635 3.554854104545454 Q 0.447275390625 3.510876831818181 0.447275390625 3.4645131954545447 Q 0.447275390625 3.416104104545454 0.4643208451704545 3.372126831818181 Q 0.4813662997159091 3.3281495590909085 0.5123890269886363 3.2937177409090905 Q 0.5434117542613637 3.259285922727272 0.5850026633522727 3.239172286363636 Q 0.6265935724431818 3.2190586499999996 0.6750026633522728 3.2190586499999996 Q 0.7261390269886363 3.2190586499999996 0.7677299360795454 3.240195013636363 Q 0.8093208451704546 3.2613313772727266 0.8389799360795454 3.2967859227272722 Q 0.8686390269886364 3.3322404681818174 0.8850026633522727 3.3758768318181813 Q 0.9013662997159091 3.419513195454545 0.9013662997159091 3.465195013636363 Q 0.9013662997159091 3.513604104545454 0.8843208451704545 3.5575813772727267 Q 0.8672753906249999 3.6015586499999994 0.8365935724431818 3.6359904681818174 Q 0.8059117542613636 3.6704222863636358 0.7643208451704545 3.690195013636363 Q 0.7227299360795454 3.7099677409090903 0.6743208451704545 3.7099677409090903 M 0.4950026633522727 3.4645131954545447 Q 0.4950026633522727 3.5040586499999993 0.5079572088068182 3.540535922727272 Q 0.5209117542613636 3.577013195454545 0.544775390625 3.6053086499999996 Q 0.5686390269886363 3.633604104545454 0.6017072088068182 3.6503086499999995 Q 0.634775390625 3.667013195454545 0.6743208451704545 3.667013195454545 Q 0.7159117542613636 3.667013195454545 0.7489799360795455 3.649626831818181 Q 0.7820481178977272 3.6322404681818177 0.8055708451704545 3.6032631954545447 Q 0.8290935724431818 3.574285922727272 0.841366299715909 3.5381495590909084 Q 0.8536390269886363 3.502013195454545 0.8536390269886363 3.4645131954545447 Q 0.8536390269886363 3.42496774090909 0.8406844815340908 3.3888313772727265 Q 0.8277299360795454 3.352695013636363 0.803525390625 3.3240586499999996 Q 0.7793208451704545 3.2954222863636358 0.7465935724431818 3.2790586499999996 Q 0.7138662997159091 3.262695013636363 0.6743208451704545 3.262695013636363 Q 0.6334117542613636 3.262695013636363 0.6003435724431818 3.2797404681818176 Q 0.567275390625 3.2967859227272722 0.5437526633522727 3.325763195454545 Q 0.5202299360795455 3.3547404681818174 0.507616299715909 3.390876831818181 Q 0.4950026633522727 3.4270131954545446 0.4950026633522727 3.4645131954545447 M 1.195213955965909 3.7099677409090903 Q 1.1379412286931816 3.7099677409090903 1.098395774147727 3.689513195454545 Q 1.0588503196022725 3.6690586499999993 1.0356685014204543 3.6346268318181814 Q 1.012486683238636 3.600195013636363 1.0019185014204544 3.5565586499999995 Q 0.9913503196022725 3.5129222863636356 0.9913503196022725 3.4665586499999996 L 0.9913503196022725 3.2224677409090905 L 1.038395774147727 3.2224677409090905 L 1.038395774147727 3.4665586499999996 Q 1.038395774147727 3.5040586499999993 1.046236683238636 3.540195013636363 Q 1.0540775923295453 3.5763313772727265 1.071804865056818 3.6049677409090903 Q 1.0895321377840907 3.633604104545454 1.1195321377840908 3.6503086499999995 Q 1.1495321377840906 3.667013195454545 1.1945321377840907 3.667013195454545 Q 1.2408957741477271 3.667013195454545 1.2712366832386361 3.649626831818181 Q 1.3015775923295452 3.6322404681818177 1.3189639559659088 3.603604104545454 Q 1.3363503196022726 3.5749677409090905 1.3438503196022724 3.5391722863636357 Q 1.3513503196022725 3.5033768318181813 1.3513503196022725 3.4665586499999996 L 1.3513503196022725 3.2224677409090905 L 1.399077592329545 3.2224677409090905 L 1.399077592329545 3.4665586499999996 Q 1.399077592329545 3.5149677409090905 1.3881685014204543 3.559285922727272 Q 1.3772594105113634 3.603604104545454 1.353054865056818 3.637013195454545 Q 1.3288503196022725 3.6704222863636358 1.2899866832386362 3.690195013636363 Q 1.2511230468749996 3.7099677409090903 1.195213955965909 3.7099677409090903 M 1.5197627397017044 3.7065586499999994 L 1.5197627397017044 3.2224677409090905 L 1.7243081942471588 3.2224677409090905 Q 1.7556718306107952 3.2224677409090905 1.7815809215198861 3.2354222863636357 Q 1.807490012428977 3.2483768318181814 1.8269218306107953 3.270535922727272 Q 1.8463536487926133 3.2926950136363633 1.856921830610795 3.3196268318181814 Q 1.867490012428977 3.3465586499999995 1.867490012428977 3.374513195454545 Q 1.867490012428977 3.409285922727272 1.8541945578835224 3.4399677409090903 Q 1.840899103338068 3.4706495590909086 1.8166945578835225 3.491785922727272 Q 1.7924900124289769 3.5129222863636356 1.7597627397017042 3.5197404681818174 L 1.8783991033380678 3.7065586499999994 L 1.8245354669744316 3.7065586499999994 L 1.7106718306107953 3.5279222863636357 L 1.567490012428977 3.5279222863636357 L 1.567490012428977 3.7065586499999994 L 1.5197627397017044 3.7065586499999994 M 1.567490012428977 3.4856495590909087 L 1.7256718306107952 3.4856495590909087 Q 1.7543081942471588 3.4856495590909087 1.7754445578835225 3.46996774090909 Q 1.796580921519886 3.454285922727272 1.8081718306107952 3.4287177409090903 Q 1.8197627397017042 3.4031495590909087 1.8197627397017042 3.374513195454545 Q 1.8197627397017042 3.345195013636363 1.8064672851562498 3.3203086499999994 Q 1.793171830610795 3.2954222863636358 1.7710127397017041 3.280081377272727 Q 1.7488536487926134 3.2647404681818175 1.721580921519886 3.2647404681818175 L 1.567490012428977 3.2647404681818175 L 1.567490012428977 3.4856495590909087 M 2.1525036621093743 3.7065586499999994 L 2.1525036621093743 3.2224677409090905 L 2.35295820756392 3.2224677409090905 Q 2.384321843927556 3.2224677409090905 2.4105718439275563 3.2354222863636357 Q 2.4368218439275564 3.2483768318181814 2.4559127530184655 3.270535922727272 Q 2.4750036621093745 3.2926950136363633 2.4859127530184653 3.3196268318181814 Q 2.496821843927556 3.3465586499999995 2.496821843927556 3.374513195454545 Q 2.496821843927556 3.4140586499999994 2.4794354802911927 3.449172286363636 Q 2.462049116654829 3.4842859227272722 2.4306854802911926 3.5061041045454537 Q 2.3993218439275563 3.5279222863636357 2.357049116654829 3.5279222863636357 L 2.200230934836647 3.5279222863636357 L 2.200230934836647 3.7065586499999994 L 2.1525036621093743 3.7065586499999994 M 2.200230934836647 3.4856495590909087 L 2.3550036621093744 3.4856495590909087 Q 2.383640025745738 3.4856495590909087 2.4047763893821017 3.46996774090909 Q 2.425912753018465 3.454285922727272 2.4375036621093744 3.4290586499999995 Q 2.4490945712002836 3.4038313772727267 2.4490945712002836 3.374513195454545 Q 2.4490945712002836 3.344513195454545 2.43545820756392 3.319285922727272 Q 2.4218218439275563 3.2940586499999993 2.399662753018465 3.2793995590909084 Q 2.3775036621093744 3.2647404681818175 2.3509127530184655 3.2647404681818175 L 2.200230934836647 3.2647404681818175 L 2.200230934836647 3.4856495590909087 M 2.9086463512073855 3.664285922727272 L 2.9086463512073855 3.7065586499999994 L 2.5834190784801128 3.7065586499999994 L 2.5834190784801128 3.2224677409090905 L 2.902509987571022 3.2224677409090905 L 2.902509987571022 3.2647404681818175 L 2.6311463512073856 3.2647404681818175 L 2.6311463512073856 3.4392859227272723 L 2.867737260298295 3.4392859227272723 L 2.867737260298295 3.479513195454545 L 2.6311463512073856 3.479513195454545 L 2.6311463512073856 3.664285922727272 L 2.9086463512073855 3.664285922727272 M 3.005470525568181 3.7065586499999994 L 3.005470525568181 3.2224677409090905 L 3.2100159801136354 3.2224677409090905 Q 3.2413796164772717 3.2224677409090905 3.2672887073863626 3.2354222863636357 Q 3.293197798295454 3.2483768318181814 3.3126296164772717 3.270535922727272 Q 3.33206143465909 3.2926950136363633 3.342629616477272 3.3196268318181814 Q 3.3531977982954535 3.3465586499999995 3.3531977982954535 3.374513195454545 Q 3.3531977982954535 3.409285922727272 3.339902343749999 3.4399677409090903 Q 3.3266068892045446 3.4706495590909086 3.302402343749999 3.491785922727272 Q 3.2781977982954538 3.5129222863636356 3.245470525568181 3.5197404681818174 L 3.3641068892045447 3.7065586499999994 L 3.310243252840908 3.7065586499999994 L 3.1963796164772718 3.5279222863636357 L 3.0531977982954537 3.5279222863636357 L 3.0531977982954537 3.7065586499999994 L 3.005470525568181 3.7065586499999994 M 3.0531977982954537 3.4856495590909087 L 3.211379616477272 3.4856495590909087 Q 3.2400159801136357 3.4856495590909087 3.261152343749999 3.46996774090909 Q 3.2822887073863627 3.454285922727272 3.293879616477272 3.4287177409090903 Q 3.305470525568181 3.4031495590909087 3.305470525568181 3.374513195454545 Q 3.305470525568181 3.345195013636363 3.292175071022726 3.3203086499999994 Q 3.2788796164772718 3.2954222863636358 3.256720525568181 3.280081377272727 Q 3.23456143465909 3.2647404681818175 3.207288707386363 3.2647404681818175 L 3.0531977982954537 3.2647404681818175 L 3.0531977982954537 3.4856495590909087 M 3.740480846058238 3.3131495590909084 Q 3.730253573330965 3.3015586499999996 3.7166172096946015 3.292354104545454 Q 3.702980846058238 3.2831495590909086 3.6859353915127833 3.2763313772727267 Q 3.6688899369673287 3.269513195454545 3.6494581187855104 3.265422286363636 Q 3.630026300603692 3.2613313772727266 3.6082081187855106 3.2613313772727266 Q 3.5447990278764197 3.2613313772727266 3.5151399369673286 3.2855359227272722 Q 3.4854808460582376 3.3097404681818174 3.4854808460582376 3.351331377272727 Q 3.4854808460582376 3.3799677409090902 3.4994581187855105 3.396331377272727 Q 3.5134353915127834 3.412695013636363 3.543435391512783 3.4229222863636357 Q 3.5734353915127834 3.4331495590909085 3.61979902787642 3.4440586499999997 Q 3.6716172096946016 3.4549677409090904 3.7091172096946012 3.46996774090909 Q 3.7466172096946013 3.4849677409090902 3.767071755149147 3.5105359227272723 Q 3.7875263006036923 3.536104104545454 3.7875263006036923 3.5797404681818175 Q 3.7875263006036923 3.6131495590909086 3.7745717551491467 3.637695013636363 Q 3.7616172096946014 3.6622404681818175 3.738435391512783 3.678604104545454 Q 3.715253573330965 3.69496774090909 3.6832081187855104 3.7028086499999993 Q 3.651162664240056 3.7106495590909083 3.612980846058238 3.7106495590909083 Q 3.575480846058238 3.7106495590909083 3.5410490278764195 3.7028086499999993 Q 3.5066172096946016 3.69496774090909 3.4759353915127833 3.6796268318181813 Q 3.445253573330965 3.664285922727272 3.418662664240056 3.640422286363636 L 3.4425263006036926 3.6015586499999994 Q 3.455480846058238 3.615195013636363 3.4735490278764196 3.627126831818181 Q 3.4916172096946014 3.6390586499999995 3.513776300603692 3.648604104545454 Q 3.5359353915127834 3.6581495590909086 3.561503573330965 3.6632631954545447 Q 3.587071755149147 3.6683768318181813 3.614344482421874 3.6683768318181813 Q 3.6722990278764196 3.6683768318181813 3.704685391512783 3.647240468181818 Q 3.737071755149147 3.626104104545454 3.737071755149147 3.584513195454545 Q 3.737071755149147 3.554513195454545 3.7207081187855104 3.536445013636363 Q 3.7043444824218743 3.5183768318181814 3.6716172096946016 3.506785922727272 Q 3.638889936967329 3.495195013636363 3.591162664240056 3.4842859227272722 Q 3.5407081187855107 3.472695013636363 3.505935391512783 3.4583768318181813 Q 3.471162664240056 3.4440586499999997 3.4537763006036926 3.420535922727272 Q 3.4363899369673288 3.397013195454545 3.4363899369673288 3.3581495590909087 Q 3.4363899369673288 3.3131495590909084 3.4585490278764195 3.2821268318181813 Q 3.4807081187855107 3.251104104545454 3.5195717551491468 3.235081377272727 Q 3.5584353915127833 3.2190586499999996 3.6088899369673286 3.2190586499999996 Q 3.6409353915127833 3.2190586499999996 3.6685490278764195 3.225535922727272 Q 3.696162664240056 3.232013195454545 3.719685391512783 3.244285922727272 Q 3.7432081187855104 3.2565586499999997 3.763662664240056 3.2749677409090903 L 3.740480846058238 3.3131495590909084 M 4.073204456676136 3.7099677409090903 Q 4.022068093039771 3.7099677409090903 3.980477183948863 3.689513195454545 Q 3.938886274857954 3.6690586499999993 3.9088862748579536 3.633945013636363 Q 3.878886274857954 3.5988313772727265 3.862522638494317 3.554854104545454 Q 3.846159002130681 3.510876831818181 3.846159002130681 3.4645131954545447 Q 3.846159002130681 3.416104104545454 3.8632044566761357 3.372126831818181 Q 3.88024991122159 3.3281495590909085 3.9112726384943173 3.2937177409090905 Q 3.9422953657670448 3.259285922727272 3.9838862748579538 3.239172286363636 Q 4.025477183948863 3.2190586499999996 4.073886274857953 3.2190586499999996 Q 4.125022638494317 3.2190586499999996 4.166613547585226 3.240195013636363 Q 4.208204456676135 3.2613313772727266 4.237863547585226 3.2967859227272722 Q 4.2675226384943175 3.3322404681818174 4.283886274857954 3.3758768318181813 Q 4.30024991122159 3.419513195454545 4.30024991122159 3.465195013636363 Q 4.30024991122159 3.513604104545454 4.283204456676136 3.5575813772727267 Q 4.2661590021306806 3.6015586499999994 4.235477183948863 3.6359904681818174 Q 4.204795365767045 3.6704222863636358 4.1632044566761355 3.690195013636363 Q 4.121613547585226 3.7099677409090903 4.073204456676136 3.7099677409090903 M 3.8938862748579535 3.4645131954545447 Q 3.8938862748579535 3.5040586499999993 3.906840820312499 3.540535922727272 Q 3.9197953657670443 3.577013195454545 3.9436590021306808 3.6053086499999996 Q 3.967522638494317 3.633604104545454 4.000590820312499 3.6503086499999995 Q 4.033659002130681 3.667013195454545 4.073204456676136 3.667013195454545 Q 4.114795365767044 3.667013195454545 4.147863547585226 3.649626831818181 Q 4.180931729403408 3.6322404681818177 4.204454456676135 3.6032631954545447 Q 4.2279771839488625 3.574285922727272 4.24024991122159 3.5381495590909084 Q 4.252522638494317 3.502013195454545 4.252522638494317 3.4645131954545447 Q 4.252522638494317 3.42496774090909 4.239568093039772 3.3888313772727265 Q 4.2266135475852264 3.352695013636363 4.202409002130681 3.3240586499999996 Q 4.178204456676135 3.2954222863636358 4.145477183948863 3.2790586499999996 Q 4.11274991122159 3.262695013636363 4.073204456676136 3.262695013636363 Q 4.032295365767045 3.262695013636363 3.9992271839488627 3.2797404681818176 Q 3.9661590021306807 3.2967859227272722 3.9426362748579535 3.325763195454545 Q 3.9191135475852263 3.3547404681818174 3.90649991122159 3.390876831818181 Q 3.8938862748579535 3.4270131954545446 3.8938862748579535 3.4645131954545447 M 4.444779385653408 3.310422286363636 L 4.444779385653408 3.7065586499999994 L 4.3970521129261355 3.7065586499999994 L 4.3970521129261355 3.2224677409090905 L 4.4365975674715905 3.2224677409090905 L 4.754324840198863 3.626104104545454 L 4.754324840198863 3.2231495590909085 L 4.802052112926136 3.2231495590909085 L 4.802052112926136 3.7065586499999994 L 4.757733931107953 3.7065586499999994 L 4.444779385653408 3.310422286363636 M 5.080215287642045 3.2224677409090905 L 5.120442560369318 3.2224677409090905 L 5.321578924005681 3.7065586499999994 L 5.271124378551136 3.7065586499999994 L 5.208397105823863 3.555195013636363 L 4.990897105823863 3.555195013636363 L 4.928851651278409 3.7065586499999994 L 4.877715287642045 3.7065586499999994 L 5.080215287642045 3.2224677409090905 M 5.197488014914772 3.517695013636363 L 5.099988014914772 3.278376831818181 L 5.001124378551136 3.517695013636363 L 5.197488014914772 3.517695013636363 M 5.39795987215909 3.7065586499999994 L 5.39795987215909 3.2224677409090905 L 5.445687144886363 3.2224677409090905 L 5.445687144886363 3.664285922727272 L 5.725232599431817 3.664285922727272 L 5.725232599431817 3.7065586499999994 L 5.39795987215909 3.7065586499999994 M 5.963201460404829 3.7065586499999994 L 5.963201460404829 3.2224677409090905 L 6.0109287331321015 3.2224677409090905 L 6.0109287331321015 3.664285922727272 L 6.290474187677556 3.664285922727272 L 6.290474187677556 3.7065586499999994 L 5.963201460404829 3.7065586499999994 M 6.542757901278408 3.7099677409090903 Q 6.491621537642044 3.7099677409090903 6.4500306285511355 3.689513195454545 Q 6.408439719460226 3.6690586499999993 6.378439719460227 3.633945013636363 Q 6.3484397194602264 3.5988313772727265 6.33207608309659 3.554854104545454 Q 6.315712446732953 3.510876831818181 6.315712446732953 3.4645131954545447 Q 6.315712446732953 3.416104104545454 6.332757901278408 3.372126831818181 Q 6.3498033558238625 3.3281495590909085 6.38082608309659 3.2937177409090905 Q 6.411848810369317 3.259285922727272 6.453439719460226 3.239172286363636 Q 6.495030628551135 3.2190586499999996 6.543439719460226 3.2190586499999996 Q 6.59457608309659 3.2190586499999996 6.636166992187499 3.240195013636363 Q 6.677757901278408 3.2613313772727266 6.707416992187499 3.2967859227272722 Q 6.73707608309659 3.3322404681818174 6.753439719460227 3.3758768318181813 Q 6.769803355823862 3.419513195454545 6.769803355823862 3.465195013636363 Q 6.769803355823862 3.513604104545454 6.752757901278408 3.5575813772727267 Q 6.735712446732953 3.6015586499999994 6.705030628551135 3.6359904681818174 Q 6.674348810369318 3.6704222863636358 6.632757901278408 3.690195013636363 Q 6.591166992187499 3.7099677409090903 6.542757901278408 3.7099677409090903 M 6.363439719460226 3.4645131954545447 Q 6.363439719460226 3.5040586499999993 6.376394264914771 3.540535922727272 Q 6.3893488103693175 3.577013195454545 6.413212446732953 3.6053086499999996 Q 6.43707608309659 3.633604104545454 6.470144264914771 3.6503086499999995 Q 6.503212446732953 3.667013195454545 6.542757901278408 3.667013195454545 Q 6.584348810369317 3.667013195454545 6.617416992187499 3.649626831818181 Q 6.650485174005681 3.6322404681818177 6.674007901278408 3.6032631954545447 Q 6.697530628551135 3.574285922727272 6.709803355823863 3.5381495590909084 Q 6.7220760830965895 3.502013195454545 6.7220760830965895 3.4645131954545447 Q 6.7220760830965895 3.42496774090909 6.709121537642044 3.3888313772727265 Q 6.696166992187499 3.352695013636363 6.6719624467329535 3.3240586499999996 Q 6.647757901278408 3.2954222863636358 6.6150306285511355 3.2790586499999996 Q 6.582303355823862 3.262695013636363 6.542757901278408 3.262695013636363 Q 6.501848810369317 3.262695013636363 6.468780628551135 3.2797404681818176 Q 6.435712446732953 3.2967859227272722 6.412189719460226 3.325763195454545 Q 6.388666992187499 3.3547404681818174 6.376053355823863 3.390876831818181 Q 6.363439719460226 3.4270131954545446 6.363439719460226 3.4645131954545447 M 6.998877618963068 3.2224677409090905 L 7.03910489169034 3.2224677409090905 L 7.240241255326704 3.7065586499999994 L 7.189786709872158 3.7065586499999994 L 7.127059437144886 3.555195013636363 L 6.909559437144885 3.555195013636363 L 6.847513982599431 3.7065586499999994 L 6.796377618963067 3.7065586499999994 L 6.998877618963068 3.2224677409090905 M 7.116150346235795 3.517695013636363 L 7.018650346235795 3.278376831818181 L 6.919786709872159 3.517695013636363 L 7.116150346235795 3.517695013636363 M 7.364349476207385 3.310422286363636 L 7.364349476207385 3.7065586499999994 L 7.3166222034801125 3.7065586499999994 L 7.3166222034801125 3.2224677409090905 L 7.3561676580255675 3.2224677409090905 L 7.67389493075284 3.626104104545454 L 7.67389493075284 3.2231495590909085 L 7.721622203480113 3.2231495590909085 L 7.721622203480113 3.7065586499999994 L 7.67730402166193 3.7065586499999994 L 7.364349476207385 3.310422286363636 M 8.159330166903407 3.2224677409090905 L 8.19955743963068 3.2224677409090905 L 8.400693803267044 3.7065586499999994 L 8.350239257812499 3.7065586499999994 L 8.287511985085226 3.555195013636363 L 8.070011985085227 3.555195013636363 L 8.007966530539772 3.7065586499999994 L 7.956830166903408 3.7065586499999994 L 8.159330166903407 3.2224677409090905 M 8.276602894176134 3.517695013636363 L 8.179102894176134 3.278376831818181 L 8.080239257812499 3.517695013636363 L 8.276602894176134 3.517695013636363 M 8.477074751420453 3.7065586499999994 L 8.477074751420453 3.2224677409090905 L 8.641392933238635 3.2224677409090905 Q 8.71843838778409 3.2224677409090905 8.769915660511362 3.254854104545454 Q 8.821392933238634 3.2872404681818175 8.847302024147726 3.3421268318181814 Q 8.873211115056817 3.397013195454545 8.873211115056817 3.4638313772727267 Q 8.873211115056817 3.5374677409090904 8.844915660511361 3.5920131954545447 Q 8.816620205965908 3.6465586499999993 8.764461115056816 3.6765586499999996 Q 8.712302024147725 3.7065586499999994 8.641392933238635 3.7065586499999994 L 8.477074751420453 3.7065586499999994 M 8.825483842329543 3.4638313772727267 Q 8.825483842329543 3.405876831818181 8.80400656960227 3.360876831818181 Q 8.782529296874998 3.3158768318181813 8.741620205965908 3.2903086499999996 Q 8.700711115056817 3.2647404681818175 8.641392933238635 3.2647404681818175 L 8.524802024147725 3.2647404681818175 L 8.524802024147725 3.664285922727272 L 8.641392933238635 3.664285922727272 Q 8.701392933238635 3.664285922727272 8.742302024147726 3.637695013636363 Q 8.783211115056817 3.611104104545454 8.804347478693181 3.565763195454545 Q 8.825483842329543 3.520422286363636 8.825483842329543 3.4638313772727267 M 8.952303688742896 3.2224677409090905 L 9.125485506924715 3.647240468181818 L 9.297985506924714 3.2224677409090905 L 9.34775823419744 3.2224677409090905 L 9.147303688742896 3.7065586499999994 L 9.103667325106533 3.7065586499999994 L 8.90253096147017 3.2224677409090905 L 8.952303688742896 3.2224677409090905 M 9.424132856889203 3.7065586499999994 L 9.424132856889203 3.2224677409090905 L 9.471860129616477 3.2224677409090905 L 9.471860129616477 3.7065586499999994 L 9.424132856889203 3.7065586499999994 M 9.882986838600852 3.3131495590909084 Q 9.87275956587358 3.3015586499999996 9.859123202237216 3.292354104545454 Q 9.845486838600852 3.2831495590909086 9.828441384055397 3.2763313772727267 Q 9.811395929509942 3.269513195454545 9.791964111328124 3.265422286363636 Q 9.772532293146305 3.2613313772727266 9.750714111328124 3.2613313772727266 Q 9.687305020419034 3.2613313772727266 9.657645929509943 3.2855359227272722 Q 9.627986838600851 3.3097404681818174 9.627986838600851 3.351331377272727 Q 9.627986838600851 3.3799677409090902 9.641964111328125 3.396331377272727 Q 9.655941384055398 3.412695013636363 9.685941384055397 3.4229222863636357 Q 9.715941384055396 3.4331495590909085 9.762305020419033 3.4440586499999997 Q 9.814123202237216 3.4549677409090904 9.851623202237215 3.46996774090909 Q 9.889123202237215 3.4849677409090902 9.909577747691761 3.5105359227272723 Q 9.930032293146306 3.536104104545454 9.930032293146306 3.5797404681818175 Q 9.930032293146306 3.6131495590909086 9.91707774769176 3.637695013636363 Q 9.904123202237216 3.6622404681818175 9.880941384055397 3.678604104545454 Q 9.857759565873579 3.69496774090909 9.825714111328125 3.7028086499999993 Q 9.79366865678267 3.7106495590909083 9.755486838600852 3.7106495590909083 Q 9.71798683860085 3.7106495590909083 9.683555020419034 3.7028086499999993 Q 9.649123202237215 3.69496774090909 9.618441384055396 3.6796268318181813 Q 9.58775956587358 3.664285922727272 9.56116865678267 3.640422286363636 L 9.585032293146305 3.6015586499999994 Q 9.597986838600852 3.615195013636363 9.616055020419033 3.627126831818181 Q 9.634123202237216 3.6390586499999995 9.656282293146306 3.648604104545454 Q 9.678441384055397 3.6581495590909086 9.704009565873578 3.6632631954545447 Q 9.72957774769176 3.6683768318181813 9.756850474964487 3.6683768318181813 Q 9.814805020419033 3.6683768318181813 9.847191384055398 3.647240468181818 Q 9.87957774769176 3.626104104545454 9.87957774769176 3.584513195454545 Q 9.87957774769176 3.554513195454545 9.863214111328125 3.536445013636363 Q 9.846850474964487 3.5183768318181814 9.814123202237216 3.506785922727272 Q 9.781395929509943 3.495195013636363 9.733668656782669 3.4842859227272722 Q 9.683214111328125 3.472695013636363 9.648441384055397 3.4583768318181813 Q 9.61366865678267 3.4440586499999997 9.596282293146306 3.420535922727272 Q 9.578895929509942 3.397013195454545 9.578895929509942 3.3581495590909087 Q 9.578895929509942 3.3131495590909084 9.601055020419034 3.2821268318181813 Q 9.623214111328124 3.251104104545454 9.662077747691761 3.235081377272727 Q 9.700941384055398 3.2190586499999996 9.751395929509943 3.2190586499999996 Q 9.783441384055397 3.2190586499999996 9.811055020419033 3.225535922727272 Q 9.83866865678267 3.232013195454545 9.862191384055397 3.244285922727272 Q 9.885714111328124 3.2565586499999997 9.90616865678267 3.2749677409090903 L 9.882986838600852 3.3131495590909084 M 10.215710449218749 3.7099677409090903 Q 10.164574085582386 3.7099677409090903 10.122983176491475 3.689513195454545 Q 10.081392267400567 3.6690586499999993 10.051392267400567 3.633945013636363 Q 10.021392267400566 3.5988313772727265 10.00502863103693 3.554854104545454 Q 9.988664994673295 3.510876831818181 9.988664994673295 3.4645131954545447 Q 9.988664994673295 3.416104104545454 10.005710449218748 3.372126831818181 Q 10.022755903764203 3.3281495590909085 10.05377863103693 3.2937177409090905 Q 10.084801358309658 3.259285922727272 10.126392267400567 3.239172286363636 Q 10.167983176491475 3.2190586499999996 10.216392267400566 3.2190586499999996 Q 10.26752863103693 3.2190586499999996 10.30911954012784 3.240195013636363 Q 10.350710449218749 3.2613313772727266 10.38036954012784 3.2967859227272722 Q 10.41002863103693 3.3322404681818174 10.426392267400567 3.3758768318181813 Q 10.442755903764203 3.419513195454545 10.442755903764203 3.465195013636363 Q 10.442755903764203 3.513604104545454 10.425710449218748 3.5575813772727267 Q 10.408664994673295 3.6015586499999994 10.377983176491476 3.6359904681818174 Q 10.347301358309657 3.6704222863636358 10.305710449218749 3.690195013636363 Q 10.26411954012784 3.7099677409090903 10.215710449218749 3.7099677409090903 M 10.036392267400567 3.4645131954545447 Q 10.036392267400567 3.5040586499999993 10.049346812855113 3.540535922727272 Q 10.062301358309657 3.577013195454545 10.086164994673295 3.6053086499999996 Q 10.110028631036931 3.633604104545454 10.143096812855113 3.6503086499999995 Q 10.176164994673295 3.667013195454545 10.215710449218749 3.667013195454545 Q 10.257301358309658 3.667013195454545 10.29036954012784 3.649626831818181 Q 10.323437721946021 3.6322404681818177 10.346960449218749 3.6032631954545447 Q 10.370483176491476 3.574285922727272 10.382755903764203 3.5381495590909084 Q 10.395028631036931 3.502013195454545 10.395028631036931 3.4645131954545447 Q 10.395028631036931 3.42496774090909 10.382074085582385 3.3888313772727265 Q 10.369119540127839 3.352695013636363 10.344914994673294 3.3240586499999996 Q 10.32071044921875 3.2954222863636358 10.287983176491476 3.2790586499999996 Q 10.255255903764203 3.262695013636363 10.215710449218749 3.262695013636363 Q 10.174801358309658 3.262695013636363 10.141733176491476 3.2797404681818176 Q 10.108664994673294 3.2967859227272722 10.085142267400567 3.325763195454545 Q 10.06161954012784 3.3547404681818174 10.049005903764204 3.390876831818181 Q 10.036392267400567 3.4270131954545446 10.036392267400567 3.4645131954545447 M 10.539558105468748 3.7065586499999994 L 10.539558105468748 3.2224677409090905 L 10.744103560014203 3.2224677409090905 Q 10.77546719637784 3.2224677409090905 10.80137628728693 3.2354222863636357 Q 10.82728537819602 3.2483768318181814 10.846717196377838 3.270535922727272 Q 10.866149014559657 3.2926950136363633 10.87671719637784 3.3196268318181814 Q 10.88728537819602 3.3465586499999995 10.88728537819602 3.374513195454545 Q 10.88728537819602 3.409285922727272 10.873989923650566 3.4399677409090903 Q 10.86069446910511 3.4706495590909086 10.836489923650566 3.491785922727272 Q 10.812285378196021 3.5129222863636356 10.779558105468748 3.5197404681818174 L 10.898194469105112 3.7065586499999994 L 10.844330832741475 3.7065586499999994 L 10.73046719637784 3.5279222863636357 L 10.587285378196022 3.5279222863636357 L 10.587285378196022 3.7065586499999994 L 10.539558105468748 3.7065586499999994 M 10.587285378196022 3.4856495590909087 L 10.745467196377838 3.4856495590909087 Q 10.774103560014202 3.4856495590909087 10.795239923650566 3.46996774090909 Q 10.81637628728693 3.454285922727272 10.82796719637784 3.4287177409090903 Q 10.839558105468749 3.4031495590909087 10.839558105468749 3.374513195454545 Q 10.839558105468749 3.345195013636363 10.826262650923294 3.3203086499999994 Q 10.812967196377839 3.2954222863636358 10.790808105468749 3.280081377272727 Q 10.768649014559657 3.2647404681818175 10.74137628728693 3.2647404681818175 L 10.587285378196022 3.2647404681818175 L 10.587285378196022 3.4856495590909087 M 10.989568425958804 3.761785922727272 L 11.001159335049714 3.704513195454545 L 10.985477516867896 3.704513195454545 L 10.985477516867896 3.6397404681818175 L 11.030477516867895 3.6397404681818175 L 11.030477516867895 3.704513195454545 L 11.01343206232244 3.761785922727272 L 10.989568425958804 3.761785922727272 M 11.332509654651986 3.7065586499999994 L 11.332509654651986 3.2224677409090905 L 11.537055109197441 3.2224677409090905 Q 11.568418745561077 3.2224677409090905 11.594327836470168 3.2354222863636357 Q 11.620236927379258 3.2483768318181814 11.639668745561076 3.270535922727272 Q 11.659100563742895 3.2926950136363633 11.669668745561077 3.3196268318181814 Q 11.680236927379259 3.3465586499999995 11.680236927379259 3.374513195454545 Q 11.680236927379259 3.409285922727272 11.666941472833804 3.4399677409090903 Q 11.653646018288349 3.4706495590909086 11.629441472833804 3.491785922727272 Q 11.60523692737926 3.5129222863636356 11.572509654651986 3.5197404681818174 L 11.69114601828835 3.7065586499999994 L 11.637282381924713 3.7065586499999994 L 11.523418745561077 3.5279222863636357 L 11.380236927379258 3.5279222863636357 L 11.380236927379258 3.7065586499999994 L 11.332509654651986 3.7065586499999994 M 11.380236927379258 3.4856495590909087 L 11.538418745561076 3.4856495590909087 Q 11.56705510919744 3.4856495590909087 11.588191472833804 3.46996774090909 Q 11.609327836470168 3.454285922727272 11.620918745561077 3.4287177409090903 Q 11.632509654651987 3.4031495590909087 11.632509654651987 3.374513195454545 Q 11.632509654651987 3.345195013636363 11.619214200106532 3.3203086499999994 Q 11.605918745561077 3.2954222863636358 11.583759654651987 3.280081377272727 Q 11.561600563742894 3.2647404681818175 11.534327836470167 3.2647404681818175 L 11.380236927379258 3.2647404681818175 L 11.380236927379258 3.4856495590909087 M 11.784565429687497 3.7065586499999994 L 11.784565429687497 3.2224677409090905 L 11.832292702414769 3.2224677409090905 L 11.832292702414769 3.7065586499999994 L 11.784565429687497 3.7065586499999994 M 12.154783047762782 3.7099677409090903 Q 12.106373956853691 3.7099677409090903 12.06478304776278 3.6891722863636356 Q 12.023192138671872 3.6683768318181813 11.992510320490053 3.6329222863636357 Q 11.961828502308236 3.5974677409090905 11.94512395685369 3.5538313772727266 Q 11.928419411399146 3.510195013636363 11.928419411399146 3.4638313772727267 Q 11.928419411399146 3.4147404681818174 11.94512395685369 3.3707631954545447 Q 11.961828502308236 3.326785922727272 11.991828502308236 3.2926950136363633 Q 12.021828502308235 3.258604104545454 12.062737593217326 3.2388313772727266 Q 12.103646684126417 3.2190586499999996 12.152055775035508 3.2190586499999996 Q 12.223646684126418 3.2190586499999996 12.268646684126418 3.2483768318181814 Q 12.313646684126418 3.277695013636363 12.336828502308236 3.3247404681818176 L 12.300010320490054 3.349285922727272 Q 12.276828502308236 3.304285922727272 12.2379648659446 3.2831495590909086 Q 12.199101229580963 3.262013195454545 12.151373956853691 3.262013195454545 Q 12.111146684126417 3.262013195454545 12.078760320490055 3.2790586499999996 Q 12.04637395685369 3.2961041045454538 12.023192138671872 3.3247404681818176 Q 12.000010320490054 3.3533768318181814 11.988078502308236 3.389513195454545 Q 11.976146684126418 3.4256495590909086 11.976146684126418 3.4645131954545447 Q 11.976146684126418 3.5054222863636357 11.989783047762781 3.5418995590909086 Q 12.003419411399145 3.578376831818181 12.028646684126418 3.6066722863636356 Q 12.05387395685369 3.63496774090909 12.086942138671873 3.6509904681818175 Q 12.120010320490055 3.667013195454545 12.158192138671872 3.667013195454545 Q 12.202510320490054 3.667013195454545 12.242055775035508 3.644854104545454 Q 12.281601229580962 3.622695013636363 12.317737593217327 3.5763313772727265 L 12.317737593217327 3.6267859227272723 Q 12.248873956853691 3.7099677409090903 12.154783047762782 3.7099677409090903 M 12.310237593217327 3.5054222863636357 L 12.202510320490054 3.5054222863636357 L 12.202510320490054 3.468604104545454 L 12.3504648659446 3.468604104545454 L 12.3504648659446 3.7065586499999994 L 12.310237593217327 3.7065586499999994 L 12.310237593217327 3.5054222863636357 M 12.837285378196022 3.2224677409090905 L 12.837285378196022 3.7065586499999994 L 12.790239923650566 3.7065586499999994 L 12.790239923650566 3.480195013636363 L 12.503194469105111 3.480195013636363 L 12.503194469105111 3.7065586499999994 L 12.455467196377839 3.7065586499999994 L 12.455467196377839 3.2224677409090905 L 12.503194469105111 3.2224677409090905 L 12.503194469105111 3.437922286363636 L 12.790239923650566 3.437922286363636 L 12.790239923650566 3.2224677409090905 L 12.837285378196022 3.2224677409090905 M 13.309087246981532 3.2647404681818175 L 13.136587246981533 3.2647404681818175 L 13.136587246981533 3.7065586499999994 L 13.088859974254259 3.7065586499999994 L 13.088859974254259 3.2647404681818175 L 12.91635997425426 3.2647404681818175 L 12.91635997425426 3.2224677409090905 L 13.309087246981532 3.2224677409090905 L 13.309087246981532 3.2647404681818175 M 13.54908624822443 3.7065586499999994 L 13.54908624822443 3.2224677409090905 L 13.596813520951702 3.2224677409090905 L 13.596813520951702 3.7065586499999994 L 13.54908624822443 3.7065586499999994 M 13.772712957208807 3.310422286363636 L 13.772712957208807 3.7065586499999994 L 13.724985684481533 3.7065586499999994 L 13.724985684481533 3.2224677409090905 L 13.764531139026987 3.2224677409090905 L 14.08225841175426 3.626104104545454 L 14.08225841175426 3.2231495590909085 L 14.129985684481532 3.2231495590909085 L 14.129985684481532 3.7065586499999994 L 14.085667502663352 3.7065586499999994 L 13.772712957208807 3.310422286363636 M 14.417715953480112 3.2224677409090905 L 14.57589777166193 3.4829222863636358 L 14.735443226207385 3.2224677409090905 L 14.787261408025568 3.2224677409090905 L 14.599761408025568 3.5265586499999992 L 14.599761408025568 3.7065586499999994 L 14.552034135298294 3.7065586499999994 L 14.552034135298294 3.5251950136363632 L 14.365215953480114 3.2224677409090905 L 14.417715953480112 3.2224677409090905 M 15.028627707741476 3.7099677409090903 Q 14.977491344105113 3.7099677409090903 14.935900435014203 3.689513195454545 Q 14.894309525923294 3.6690586499999993 14.864309525923295 3.633945013636363 Q 14.834309525923294 3.5988313772727265 14.817945889559658 3.554854104545454 Q 14.801582253196022 3.510876831818181 14.801582253196022 3.4645131954545447 Q 14.801582253196022 3.416104104545454 14.818627707741475 3.372126831818181 Q 14.83567316228693 3.3281495590909085 14.866695889559658 3.2937177409090905 Q 14.897718616832385 3.259285922727272 14.939309525923294 3.239172286363636 Q 14.980900435014203 3.2190586499999996 15.029309525923294 3.2190586499999996 Q 15.080445889559657 3.2190586499999996 15.122036798650567 3.240195013636363 Q 15.163627707741476 3.2613313772727266 15.193286798650567 3.2967859227272722 Q 15.222945889559657 3.3322404681818174 15.239309525923295 3.3758768318181813 Q 15.25567316228693 3.419513195454545 15.25567316228693 3.465195013636363 Q 15.25567316228693 3.513604104545454 15.238627707741475 3.5575813772727267 Q 15.221582253196022 3.6015586499999994 15.190900435014203 3.6359904681818174 Q 15.160218616832385 3.6704222863636358 15.118627707741476 3.690195013636363 Q 15.077036798650568 3.7099677409090903 15.028627707741476 3.7099677409090903 M 14.849309525923294 3.4645131954545447 Q 14.849309525923294 3.5040586499999993 14.86226407137784 3.540535922727272 Q 14.875218616832385 3.577013195454545 14.899082253196022 3.6053086499999996 Q 14.922945889559658 3.633604104545454 14.95601407137784 3.6503086499999995 Q 14.989082253196022 3.667013195454545 15.028627707741476 3.667013195454545 Q 15.070218616832385 3.667013195454545 15.103286798650567 3.649626831818181 Q 15.136354980468749 3.6322404681818177 15.159877707741476 3.6032631954545447 Q 15.183400435014203 3.574285922727272 15.19567316228693 3.5381495590909084 Q 15.207945889559658 3.502013195454545 15.207945889559658 3.4645131954545447 Q 15.207945889559658 3.42496774090909 15.194991344105112 3.3888313772727265 Q 15.182036798650566 3.352695013636363 15.157832253196021 3.3240586499999996 Q 15.133627707741477 3.2954222863636358 15.100900435014204 3.2790586499999996 Q 15.06817316228693 3.262695013636363 15.028627707741476 3.262695013636363 Q 14.987718616832385 3.262695013636363 14.954650435014203 3.2797404681818176 Q 14.921582253196021 3.2967859227272722 14.898059525923294 3.325763195454545 Q 14.874536798650567 3.3547404681818174 14.861923162286931 3.390876831818181 Q 14.849309525923294 3.4270131954545446 14.849309525923294 3.4645131954545447 M 15.54952081853693 3.7099677409090903 Q 15.492248091264203 3.7099677409090903 15.452702636718747 3.689513195454545 Q 15.413157182173293 3.6690586499999993 15.389975363991475 3.6346268318181814 Q 15.366793545809657 3.600195013636363 15.356225363991475 3.5565586499999995 Q 15.345657182173294 3.5129222863636356 15.345657182173294 3.4665586499999996 L 15.345657182173294 3.2224677409090905 L 15.392702636718749 3.2224677409090905 L 15.392702636718749 3.4665586499999996 Q 15.392702636718749 3.5040586499999993 15.400543545809658 3.540195013636363 Q 15.408384454900567 3.5763313772727265 15.42611172762784 3.6049677409090903 Q 15.443839000355112 3.633604104545454 15.473839000355111 3.6503086499999995 Q 15.503839000355113 3.667013195454545 15.548839000355112 3.667013195454545 Q 15.595202636718748 3.667013195454545 15.625543545809657 3.649626831818181 Q 15.655884454900566 3.6322404681818177 15.67327081853693 3.603604104545454 Q 15.690657182173293 3.5749677409090905 15.698157182173293 3.5391722863636357 Q 15.705657182173294 3.5033768318181813 15.705657182173294 3.4665586499999996 L 15.705657182173294 3.2224677409090905 L 15.753384454900566 3.2224677409090905 L 15.753384454900566 3.4665586499999996 Q 15.753384454900566 3.5149677409090905 15.742475363991476 3.559285922727272 Q 15.731566273082384 3.603604104545454 15.70736172762784 3.637013195454545 Q 15.683157182173293 3.6704222863636358 15.644293545809656 3.690195013636363 Q 15.605429909446022 3.7099677409090903 15.54952081853693 3.7099677409090903 M 15.874069602272725 3.7065586499999994 L 15.874069602272725 3.2224677409090905 L 16.07861505681818 3.2224677409090905 Q 16.109978693181816 3.2224677409090905 16.135887784090908 3.2354222863636357 Q 16.161796874999997 3.2483768318181814 16.181228693181815 3.270535922727272 Q 16.200660511363633 3.2926950136363633 16.211228693181816 3.3196268318181814 Q 16.221796875 3.3465586499999995 16.221796875 3.374513195454545 Q 16.221796875 3.409285922727272 16.208501420454542 3.4399677409090903 Q 16.19520596590909 3.4706495590909086 16.171001420454544 3.491785922727272 Q 16.146796874999996 3.5129222863636356 16.114069602272725 3.5197404681818174 L 16.232705965909087 3.7065586499999994 L 16.178842329545454 3.7065586499999994 L 16.064978693181814 3.5279222863636357 L 15.921796874999998 3.5279222863636357 L 15.921796874999998 3.7065586499999994 L 15.874069602272725 3.7065586499999994 M 15.921796874999998 3.4856495590909087 L 16.079978693181815 3.4856495590909087 Q 16.10861505681818 3.4856495590909087 16.129751420454543 3.46996774090909 Q 16.150887784090905 3.454285922727272 16.162478693181814 3.4287177409090903 Q 16.174069602272724 3.4031495590909087 16.174069602272724 3.374513195454545 Q 16.174069602272724 3.345195013636363 16.16077414772727 3.3203086499999994 Q 16.147478693181817 3.2954222863636358 16.125319602272725 3.280081377272727 Q 16.103160511363633 3.2647404681818175 16.075887784090906 3.2647404681818175 L 15.921796874999998 3.2647404681818175 L 15.921796874999998 3.4856495590909087 M 16.506810524680397 3.7065586499999994 L 16.506810524680397 3.2224677409090905 L 16.70726507013494 3.2224677409090905 Q 16.738628706498577 3.2224677409090905 16.76487870649858 3.2354222863636357 Q 16.791128706498576 3.2483768318181814 16.810219615589485 3.270535922727272 Q 16.829310524680395 3.2926950136363633 16.840219615589486 3.3196268318181814 Q 16.851128706498578 3.3465586499999995 16.851128706498578 3.374513195454545 Q 16.851128706498578 3.4140586499999994 16.833742342862212 3.449172286363636 Q 16.81635597922585 3.4842859227272722 16.784992342862214 3.5061041045454537 Q 16.753628706498578 3.5279222863636357 16.71135597922585 3.5279222863636357 L 16.55453779740767 3.5279222863636357 L 16.55453779740767 3.7065586499999994 L 16.506810524680397 3.7065586499999994 M 16.55453779740767 3.4856495590909087 L 16.709310524680394 3.4856495590909087 Q 16.73794688831676 3.4856495590909087 16.759083251953122 3.46996774090909 Q 16.780219615589488 3.454285922727272 16.791810524680393 3.4290586499999995 Q 16.803401433771302 3.4038313772727267 16.803401433771302 3.374513195454545 Q 16.803401433771302 3.344513195454545 16.78976507013494 3.319285922727272 Q 16.776128706498575 3.2940586499999993 16.753969615589487 3.2793995590909084 Q 16.731810524680395 3.2647404681818175 16.705219615589485 3.2647404681818175 L 16.55453779740767 3.2647404681818175 L 16.55453779740767 3.4856495590909087 M 17.13272594105113 3.7099677409090903 Q 17.081589577414768 3.7099677409090903 17.03999866832386 3.689513195454545 Q 16.99840775923295 3.6690586499999993 16.96840775923295 3.633945013636363 Q 16.938407759232952 3.5988313772727265 16.922044122869316 3.554854104545454 Q 16.905680486505677 3.510876831818181 16.905680486505677 3.4645131954545447 Q 16.905680486505677 3.416104104545454 16.922725941051134 3.372126831818181 Q 16.939771395596587 3.3281495590909085 16.970794122869314 3.2937177409090905 Q 17.001816850142042 3.259285922727272 17.043407759232952 3.239172286363636 Q 17.08499866832386 3.2190586499999996 17.133407759232952 3.2190586499999996 Q 17.184544122869315 3.2190586499999996 17.226135031960222 3.240195013636363 Q 17.267725941051133 3.2613313772727266 17.297385031960225 3.2967859227272722 Q 17.327044122869314 3.3322404681818174 17.34340775923295 3.3758768318181813 Q 17.35977139559659 3.419513195454545 17.35977139559659 3.465195013636363 Q 17.35977139559659 3.513604104545454 17.342725941051132 3.5575813772727267 Q 17.32568048650568 3.6015586499999994 17.29499866832386 3.6359904681818174 Q 17.26431685014204 3.6704222863636358 17.22272594105113 3.690195013636363 Q 17.181135031960224 3.7099677409090903 17.13272594105113 3.7099677409090903 M 16.953407759232952 3.4645131954545447 Q 16.953407759232952 3.5040586499999993 16.966362304687497 3.540535922727272 Q 16.97931685014204 3.577013195454545 17.003180486505677 3.6053086499999996 Q 17.027044122869313 3.633604104545454 17.060112304687497 3.6503086499999995 Q 17.093180486505677 3.667013195454545 17.13272594105113 3.667013195454545 Q 17.17431685014204 3.667013195454545 17.207385031960225 3.649626831818181 Q 17.240453213778405 3.6322404681818177 17.263975941051132 3.6032631954545447 Q 17.28749866832386 3.574285922727272 17.299771395596586 3.5381495590909084 Q 17.312044122869313 3.502013195454545 17.312044122869313 3.4645131954545447 Q 17.312044122869313 3.42496774090909 17.29908957741477 3.3888313772727265 Q 17.286135031960224 3.352695013636363 17.26193048650568 3.3240586499999996 Q 17.23772594105113 3.2954222863636358 17.20499866832386 3.2790586499999996 Q 17.17227139559659 3.262695013636363 17.13272594105113 3.262695013636363 Q 17.09181685014204 3.262695013636363 17.05874866832386 3.2797404681818176 Q 17.025680486505678 3.2967859227272722 17.00215775923295 3.325763195454545 Q 16.978635031960224 3.3547404681818174 16.966021395596588 3.390876831818181 Q 16.953407759232952 3.4270131954545446 16.953407759232952 3.4645131954545447 M 17.424528142755676 3.461104104545454 Q 17.424528142755676 3.4167859227272723 17.439869051846586 3.3741722863636356 Q 17.455209960937495 3.3315586499999994 17.48452814275568 3.296445013636363 Q 17.51384632457386 3.2613313772727266 17.556800870028404 3.2405359227272723 Q 17.59975541548295 3.2197404681818176 17.654300870028404 3.2197404681818176 Q 17.719073597301133 3.2197404681818176 17.76509632457386 3.2493995590909086 Q 17.811119051846585 3.2790586499999996 17.83293723366477 3.3254222863636356 L 17.795437233664767 3.348604104545454 Q 17.77975541548295 3.3165586499999993 17.755891779119313 3.2978086499999995 Q 17.732028142755677 3.2790586499999996 17.70509632457386 3.2708768318181813 Q 17.67816450639204 3.262695013636363 17.65157359730113 3.262695013636363 Q 17.607937233664767 3.262695013636363 17.57452814275568 3.280081377272727 Q 17.541119051846586 3.2974677409090902 17.518278142755676 3.3264450136363632 Q 17.495437233664767 3.355422286363636 17.48384632457386 3.3912177409090902 Q 17.47225541548295 3.4270131954545446 17.47225541548295 3.4638313772727267 Q 17.47225541548295 3.5040586499999993 17.485891779119314 3.5408768318181814 Q 17.49952814275568 3.577695013636363 17.524073597301133 3.6059904681818176 Q 17.548619051846586 3.634285922727272 17.58168723366477 3.6509904681818175 Q 17.61475541548295 3.667695013636363 17.653619051846587 3.667695013636363 Q 17.680891779119314 3.667695013636363 17.709528142755676 3.6581495590909086 Q 17.738164506392042 3.648604104545454 17.763050870028405 3.6288313772727268 Q 17.787937233664767 3.6090586499999993 17.802937233664768 3.577695013636363 L 17.84248268821022 3.5981495590909085 Q 17.82748268821022 3.634285922727272 17.796119051846585 3.659513195454545 Q 17.76475541548295 3.6847404681818174 17.726232688210224 3.697695013636363 Q 17.687709960937497 3.7106495590909083 17.650891779119313 3.7106495590909083 Q 17.601119051846588 3.7106495590909083 17.559528142755678 3.6891722863636356 Q 17.517937233664767 3.667695013636363 17.487596324573857 3.6318995590909084 Q 17.45725541548295 3.596104104545454 17.440891779119315 3.551445013636363 Q 17.424528142755676 3.506785922727272 17.424528142755676 3.461104104545454 M 17.93110140713778 3.7065586499999994 L 17.93110140713778 3.2231495590909085 L 17.978828679865053 3.2231495590909085 L 17.978828679865053 3.5040586499999993 L 18.24541958895596 3.2224677409090905 L 18.29791958895596 3.2224677409090905 L 18.10019231622869 3.435195013636363 L 18.308146861683234 3.7065586499999994 L 18.254283225319597 3.7065586499999994 L 18.06951049804687 3.4638313772727267 L 17.978828679865053 3.557922286363636 L 17.978828679865053 3.7065586499999994 L 17.93110140713778 3.7065586499999994 M 18.7015596147017 3.664285922727272 L 18.7015596147017 3.7065586499999994 L 18.37633234197443 3.7065586499999994 L 18.37633234197443 3.2224677409090905 L 18.695423251065336 3.2224677409090905 L 18.695423251065336 3.2647404681818175 L 18.4240596147017 3.2647404681818175 L 18.4240596147017 3.4392859227272723 L 18.660650523792608 3.4392859227272723 L 18.660650523792608 3.479513195454545 L 18.4240596147017 3.479513195454545 L 18.4240596147017 3.664285922727272 L 18.7015596147017 3.664285922727272 M 19.142020152698862 3.2647404681818175 L 18.96952015269886 3.2647404681818175 L 18.96952015269886 3.7065586499999994 L 18.921792879971587 3.7065586499999994 L 18.921792879971587 3.2647404681818175 L 18.749292879971588 3.2647404681818175 L 18.749292879971588 3.2224677409090905 L 19.142020152698862 3.2224677409090905 L 19.142020152698862 3.2647404681818175" fill="url(#gradient-8d2fd4f4-7714-4462-b8c9-fcb8a4e01600)" fill-rule="nonzero"></path></g><g clip-path="url(&quot;#SvgjsClipPath1002&quot;)"><g clip-path="url(&quot;#SvgjsClipPath1000dc6164e6-d20e-4e1d-92d7-c0def0831752&quot;)"><path d=" M 9.141027413021206 -0.283930618100392 C 7.299290662312803 -0.2892246896711175 5.808079906058351 -1.7818693024219687 5.80455588626026 -3.6236102905601477 L 5.80455588626026 -4.586054000202728 L 5.2891138106516795 -4.586054000202728 C 4.128268923669886 -4.589577074248418 3.188093306278923 -5.529752691639379 3.1845702322332317 -6.690597578621171 L 3.1845702322332317 -8.601583033211496 C 3.188093306278932 -9.762427920193302 4.128268923669899 -10.702603537584254 5.289113810651688 -10.706126611629939 L 10.012573661197543 -10.706126611629939 C 11.854067000363678 -10.700247800606052 13.344936195040251 -9.207945077857673 13.34904518795849 -7.366446939170183 L 13.34904518795849 -6.404003229527602 L 13.864487263567069 -6.404003229527602 C 15.024501001488758 -6.400486840381339 15.96433497988509 -5.461607977816709 15.969030841985512 -4.301598414908366 L 15.969030841985512 -2.3884741965188354 C 15.965507767939814 -1.2276293095370292 15.025332150548845 -0.28745369214607486 13.864487263567057 -0.283930618100392 Z M 7.610741914689502 -9.944726699112696 C 8.418775094920663 -9.292996982475907 8.869899163557328 -8.296715068362754 8.826629134537963 -7.259508749209897 L 8.826629134537963 -3.6236102905601477 C 8.826852771685939 -2.915614409171819 9.117728238817207 -2.238756413732963 9.631226732525404 -1.7513371742331039 C 10.144725226233597 -1.2639179347332448 10.835812269718593 -1.0086847439145181 11.542859159530092 -1.0453305306176777 C 10.735242255305856 -1.6973823237389816 10.284218578198859 -2.6934425288539074 10.326971939680783 -3.7305484805204348 L 10.326971939680783 -7.366446939170183 C 10.326162417387085 -8.074071156194702 10.035030667651334 -8.750366981904143 9.521599606253526 -9.237317937379652 C 9.008168544855714 -9.724268892855157 8.317418043316227 -9.979214934595689 7.610741914689985 -9.942587935313515 Z M 14.277268676813776 -2.9648710404047813 C 13.82478170911369 -2.9454148682801184 13.384785730742832 -3.1161252960180974 13.063823284002515 -3.4356657572348777 C 12.742860837262201 -3.755206218451659 12.570198424930481 -4.194439872090362 12.587645275441243 -4.647008768480092 L 12.587645275441243 -7.366446939170183 C 12.58691219257879 -8.075050425808167 12.295052009607392 -8.752224910222955 11.780431951297771 -9.239344643216242 C 11.265811892988152 -9.72646437620953 10.573644783157349 -9.980732621995362 9.86606834095199 -9.942587935313494 C 10.638643620045949 -9.31018026173188 11.087174707105936 -8.36485096275768 11.088371852198025 -7.366446939170182 L 11.088371852198025 -3.7305484805204348 C 11.088371852198025 -0.6881569761502764 15.20763092946827 -0.21121264892739688 15.20763092946827 -2.390612960318041 L 15.20763092946827 -4.301598414908365 C 15.20588047397315 -5.040412112438827 14.608638517939015 -5.639563715015089 13.869834173065144 -5.643672698909962 L 13.349045187958486 -5.643672698909962 L 13.349045187958486 -4.647008768480092 C 13.339494823321791 -4.398692857156361 13.434478111248454 -4.157745187110928 13.610903746135072 -3.982742339602428 C 13.78732938102169 -3.807739492093927 14.029038235281114 -3.714710279164448 14.277268676813776 -3.7262709529220235 C 14.487279647232654 -3.7256835062040317 14.657381186354405 -3.555581967082281 14.657968633072395 -3.345570996663402 C 14.657968633072395 -3.1353162165605166 14.48752345691666 -2.9648710404047813 14.277268676813774 -2.9648710404047813 Z M 4.8774017793045745 -8.025186189325549 C 5.329798282061262 -8.044663239072115 5.769700701440282 -7.873922828825034 6.090498585559022 -7.554343936032899 C 6.4112964696777635 -7.234765043240767 6.583710391903644 -6.795515836423558 6.5659557987775035 -6.343048461250239 L 6.5659557987775035 -3.6236102905601477 C 6.56579216013774 -2.9145365341599785 6.857300244683179 -2.2366132002950607 7.3720595698456926 -1.7489571166148377 C 7.886818895008202 -1.2613010329346128 8.579503798500655 -1.0068513632010507 9.287532733267465 -1.0453305306176706 C 8.51437864758482 -1.6782129389958076 8.065785909979862 -2.624457112543979 8.065229222020726 -3.6236102905601477 L 8.065229222020726 -7.259508749209896 C 8.065229222020722 -10.301900253580055 3.9459701447504774 -10.778844580802934 3.9459701447504774 -8.599444269412288 L 3.9459701447504774 -6.68632005102276 C 3.949465296995468 -5.948405555494767 4.545862893951185 -5.350577748474412 5.283766901153665 -5.345315148920763 L 5.804555886260255 -5.345315148920763 L 5.804555886260255 -6.3430484612502385 C 5.814084973677523 -6.591169862409966 5.719244770984902 -6.831938313941064 5.543058522924191 -7.006905280008273 C 5.366872274863484 -7.181872246075484 5.1254510242504905 -7.275038178968991 4.8774017793045745 -7.263786276808306 C 4.776433873223592 -7.263786276808306 4.679601349708745 -7.303895621326967 4.608206258636677 -7.375290712399034 C 4.53681116756461 -7.446685803471102 4.496701823045947 -7.543518326985947 4.496701823045947 -7.644486233066928 C 4.496701823045947 -7.745454139147909 4.53681116756461 -7.842286662662757 4.608206258636677 -7.913681753734823 C 4.67960134970875 -7.9850768448068905 4.776433873223597 -8.02518618932555 4.8774017793045745 -8.025186189325549 Z" fill="url(#gradient-431a9593-1541-4975-87c3-24740a2b7fb2_0)" transform="matrix(1,0,0,1,0,0)" fill-rule="evenodd"></path></g></g></g><defs><linearGradient id="gradient-fca7a8ad-b49a-4afe-9c15-e3018e6d7f69" x1="0" y1="0" x2="1" y2="1"><stop stop-color="#ba8437" offset="0"></stop><stop stop-color="#000000" offset="1"></stop></linearGradient><linearGradient id="gradient-8d2fd4f4-7714-4462-b8c9-fcb8a4e01600" x1="0" y1="0" x2="1" y2="1"><stop stop-color="#8c1627" offset="0"></stop><stop stop-color="#0e0904" offset="1"></stop></linearGradient><clipPath id="SvgjsClipPath1002"><path d=" M 3.184570232233236 -10.706126611629939 h 12.784460609752276 v 10.421126611629939 h -12.784460609752276 Z"></path></clipPath><clipPath id="SvgjsClipPath1000dc6164e6-d20e-4e1d-92d7-c0def0831752"><path d=" M 3.184570232233236 -10.70612661162994 L 15.969030841985512 -10.70612661162994 L 15.969030841985512 -0.28500000000000014 L 3.184570232233236 -0.28500000000000014 Z"></path></clipPath><linearGradient id="gradient-431a9593-1541-4975-87c3-24740a2b7fb2_0" x1="0" x2="1" y1="0" y2="1"><stop stop-color="#aac527" offset="0"></stop><stop stop-color="#343432" offset="1"></stop></linearGradient></defs></svg>